# xmcd CD database file
#
# Track frame offsets:
#	150
#	18413
#	30157
#	46758
#	65879
#	86982
#	104370
#	119720
#	136153
#	151972
#	167826
#	186622
#	212849
#	226537
#	242283
#
# Disc length: 3383 seconds
#
# Revision: 2
# Processed by: cddbd v1.5.1PL0 Copyright (c) Steve Scherf et al.
# Submitted via: jetAudio 5
#
DISCID=c60d350f
DTITLE=Morrissey - You Are The Quarry
DYEAR=1900
DGENRE=
TTITLE0=America Is Not The World
TTITLE1=Irish Blood, English Heart
TTITLE2=I Have Forgiven Jesus
TTITLE3=Come Back To Camden
TTITLE4=I'm Not Sorry
TTITLE5=The World Is Full Of Crashing Bores
TTITLE6=How Could Anybody Possibly Know How I Feel?
TTITLE7=The First Of the Gang To Die
TTITLE8=Let Me Kiss You
TTITLE9=All The Lazy Dykes
TTITLE10=I Like You
TTITLE11=You Know I Couldn't Last
TTITLE12=The Never Played Symphonies
TTITLE13=It's Hard To Walk Tall When You're Small
TTITLE14=Munich Air Disaster 1958
EXTD=
EXTT0=
EXTT1=
EXTT2=
EXTT3=
EXTT4=
EXTT5=
EXTT6=
EXTT7=
EXTT8=
EXTT9=
EXTT10=
EXTT11=
EXTT12=
EXTT13=
EXTT14=
PLAYORDER=
